<svg width="632" height="94" viewBox="0 0 632 94" fill="none" xmlns="http://www.w3.org/2000/svg">
<path d="M17.3196 46.709C17.3196 30.1402 29.9959 17.4514 44.7389 17.4514C53.6226 17.4514 60.8381 21.2293 65.6918 27.516H85.5408C78.8145 11.6695 64.3201 0.130859 44.7389 0.130859C19.6301 0.130859 0 21.3949 0 46.709C0 72.0117 19.5837 93.2871 44.7034 93.2871C58.1269 93.2871 69.4676 88.5314 77.4401 80.2561C85.3552 72.0403 89.4068 60.9227 89.4068 49.1088V40.4486H44.7389V57.7691H70.9046C69.715 61.8838 67.6706 65.4329 64.9674 68.2387C60.5705 72.8027 53.8894 75.9666 44.7034 75.9666C29.9711 75.9666 17.3196 63.2891 17.3196 46.709Z" fill="#20233A"/>
<path fill-rule="evenodd" clip-rule="evenodd" d="M98.2404 48.6164L98.2404 91.6621H115.458V40.0073H133.905V22.789H124.066C109.803 22.789 98.2404 34.3523 98.2404 48.6164Z" fill="#20233A"/>
<path fill-rule="evenodd" clip-rule="evenodd" d="M172.044 38.7612C162.908 38.7612 154.827 46.639 154.827 57.2094C154.827 67.7798 162.908 75.6576 172.044 75.6576C181.18 75.6576 189.261 67.7798 189.261 57.2094C189.261 46.639 181.18 38.7612 172.044 38.7612ZM137.609 57.2094C137.609 37.8932 152.653 21.543 172.044 21.543C191.435 21.543 206.479 37.8932 206.479 57.2094C206.479 76.5256 191.435 92.8758 172.044 92.8758C152.653 92.8758 137.609 76.5256 137.609 57.2094Z" fill="#20233A"/>
<path d="M274.347 84.7011C277.947 95.9286 293.753 96.1464 297.661 85.0223L319.403 22.7909H301.154L286.271 70.4172L274.738 30.1705C271.085 18.7791 254.968 18.7791 251.316 30.1705L239.882 70.1105L225.52 22.7909H207.319L228.301 84.9079C232.14 96.1051 248.031 95.9458 251.645 84.6738L263.027 43.246L274.347 84.7011Z" fill="#20233A"/>
<path fill-rule="evenodd" clip-rule="evenodd" d="M327 8.03125H344.218V22.7898H362.665V40.0081H344.218V74.4446H362.665V91.6629H352.826C338.563 91.6629 327 80.0996 327 65.8355V8.03125Z" fill="#20233A"/>
<path fill-rule="evenodd" clip-rule="evenodd" d="M372.493 0.0371094H389.711V22.7898H406.928C421.192 22.7898 432.754 34.3532 432.754 48.6173V91.663H415.537V40.0081H389.711V91.663H372.493V0.0371094Z" fill="#20233A"/>
<path d="M503.258 27.3963C526.978 51.1168 510.179 91.6751 476.634 91.6751H463.475V61.1709H493.894L432.754 0H475.892L503.258 27.3963Z" fill="#20233A"/>
<path d="M521.574 64.2936C497.854 40.5731 514.653 0.0146705 548.198 0.0146734L631.548 0.0146711V30.5189H530.938L592.094 91.6749H548.956L521.574 64.2936Z" fill="#20233A"/>
</svg>
